<svg xmlns="http://www.w3.org/2000/svg" xmlns:xlink="http://www.w3.org/1999/xlink" width="500" zoomAndPan="magnify" viewBox="0 0 375 374.999991" height="500" preserveAspectRatio="xMidYMid meet" version="1.0"><defs><clipPath id="d01ad35eed"><path d="M 10.320312 10.320312 L 364.320312 10.320312 L 364.320312 364.320312 L 10.320312 364.320312 Z M 10.320312 10.320312 " clip-rule="nonzero"/></clipPath></defs><rect x="-37.5" width="450" fill="#ffffff" y="-37.499999" height="449.999989" fill-opacity="1"/><rect x="-37.5" width="450" fill="#000000" y="-37.499999" height="449.999989" fill-opacity="1"/><g clip-path="url(#d01ad35eed)"><path fill="#ffffff" d="M 187.496094 364.671875 C 285.347656 364.671875 364.671875 285.347656 364.671875 187.496094 C 364.671875 89.644531 285.347656 10.320312 187.496094 10.320312 C 89.644531 10.320312 10.320312 89.644531 10.320312 187.496094 C 10.320312 285.347656 89.644531 364.671875 187.496094 364.671875 Z M 272.65625 162.4375 C 285.101562 149.988281 285.101562 129.808594 272.65625 117.363281 L 257.632812 102.339844 C 245.183594 89.890625 225.003906 89.890625 212.558594 102.339844 Z M 257.628906 177.464844 L 174.996094 260.097656 L 114.894531 200 L 197.53125 117.363281 Z M 103.363281 218.515625 L 156.476562 271.628906 L 105.710938 281.785156 C 102.226562 282.480469 98.628906 281.390625 96.117188 278.878906 C 93.605469 276.367188 92.511719 272.765625 93.210938 269.28125 Z M 103.363281 218.515625 " fill-opacity="1" fill-rule="evenodd"/></g></svg>