<svg xmlns="http://www.w3.org/2000/svg" xmlns:xlink="http://www.w3.org/1999/xlink" width="500" zoomAndPan="magnify" viewBox="0 0 375 374.999991" height="500" preserveAspectRatio="xMidYMid meet" version="1.0"><defs><clipPath id="c7082a4ed5"><path d="M 6.757812 6.757812 L 368.257812 6.757812 L 368.257812 368.257812 L 6.757812 368.257812 Z M 6.757812 6.757812 " clip-rule="nonzero"/></clipPath></defs><path fill="#000000" d="M 262.414062 111.402344 L 244.585938 111.402344 L 244.585938 120.914062 C 244.585938 121.539062 244.523438 122.15625 244.402344 122.769531 C 244.28125 123.382812 244.101562 123.976562 243.863281 124.554688 C 243.621094 125.132812 243.328125 125.679688 242.984375 126.199219 C 242.636719 126.71875 242.242188 127.199219 241.800781 127.640625 C 241.359375 128.082031 240.878906 128.476562 240.359375 128.824219 C 239.839844 129.171875 239.289062 129.464844 238.714844 129.703125 C 238.136719 129.941406 237.542969 130.125 236.929688 130.246094 C 236.316406 130.367188 235.699219 130.429688 235.074219 130.429688 C 234.449219 130.429688 233.828125 130.367188 233.21875 130.246094 C 232.605469 130.125 232.007812 129.941406 231.433594 129.703125 C 230.855469 129.464844 230.308594 129.171875 229.789062 128.824219 C 229.269531 128.476562 228.789062 128.082031 228.347656 127.640625 C 227.902344 127.199219 227.511719 126.71875 227.164062 126.199219 C 226.816406 125.679688 226.523438 125.132812 226.285156 124.554688 C 226.042969 123.976562 225.863281 123.382812 225.742188 122.769531 C 225.621094 122.15625 225.558594 121.539062 225.558594 120.914062 L 225.558594 111.402344 L 197.019531 111.402344 L 197.019531 120.914062 C 197.019531 121.539062 196.960938 122.15625 196.835938 122.769531 C 196.714844 123.382812 196.535156 123.976562 196.296875 124.554688 C 196.058594 125.132812 195.765625 125.679688 195.417969 126.199219 C 195.070312 126.71875 194.675781 127.199219 194.234375 127.640625 C 193.792969 128.082031 193.3125 128.476562 192.792969 128.824219 C 192.273438 129.171875 191.722656 129.464844 191.148438 129.703125 C 190.570312 129.941406 189.976562 130.125 189.363281 130.246094 C 188.75 130.367188 188.132812 130.429688 187.507812 130.429688 C 186.882812 130.429688 186.265625 130.367188 185.652344 130.246094 C 185.039062 130.125 184.445312 129.941406 183.867188 129.703125 C 183.289062 129.464844 182.742188 129.171875 182.222656 128.824219 C 181.703125 128.476562 181.222656 128.082031 180.78125 127.640625 C 180.339844 127.199219 179.945312 126.71875 179.597656 126.199219 C 179.25 125.679688 178.957031 125.132812 178.71875 124.554688 C 178.480469 123.976562 178.296875 123.382812 178.175781 122.769531 C 178.054688 122.15625 177.992188 121.539062 177.992188 120.914062 L 177.992188 111.402344 L 149.453125 111.402344 L 149.453125 120.914062 C 149.453125 121.539062 149.394531 122.15625 149.273438 122.769531 C 149.148438 123.382812 148.96875 123.976562 148.730469 124.554688 C 148.492188 125.132812 148.199219 125.679688 147.851562 126.199219 C 147.503906 126.71875 147.109375 127.199219 146.667969 127.640625 C 146.226562 128.082031 145.746094 128.476562 145.226562 128.824219 C 144.707031 129.171875 144.160156 129.464844 143.582031 129.703125 C 143.003906 129.941406 142.410156 130.125 141.796875 130.246094 C 141.183594 130.367188 140.566406 130.429688 139.941406 130.429688 C 139.316406 130.429688 138.699219 130.367188 138.085938 130.246094 C 137.472656 130.125 136.878906 129.941406 136.300781 129.703125 C 135.722656 129.464844 135.175781 129.171875 134.65625 128.824219 C 134.136719 128.476562 133.65625 128.082031 133.214844 127.640625 C 132.773438 127.199219 132.378906 126.71875 132.03125 126.199219 C 131.683594 125.679688 131.390625 125.132812 131.152344 124.554688 C 130.914062 123.976562 130.734375 123.382812 130.609375 122.769531 C 130.488281 122.15625 130.429688 121.539062 130.429688 120.914062 L 130.429688 111.402344 L 112.601562 111.402344 C 111.898438 111.402344 111.203125 111.472656 110.511719 111.609375 C 109.824219 111.746094 109.152344 111.949219 108.503906 112.21875 C 107.855469 112.488281 107.238281 112.816406 106.65625 113.207031 C 106.070312 113.597656 105.53125 114.042969 105.03125 114.539062 C 104.535156 115.035156 104.089844 115.574219 103.699219 116.160156 C 103.308594 116.742188 102.980469 117.359375 102.710938 118.007812 C 102.441406 118.65625 102.234375 119.328125 102.097656 120.015625 C 101.960938 120.707031 101.890625 121.402344 101.886719 122.105469 L 101.886719 149.453125 L 273.125 149.453125 L 273.125 122.105469 C 273.125 121.402344 273.054688 120.707031 272.917969 120.015625 C 272.777344 119.328125 272.574219 118.65625 272.304688 118.007812 C 272.035156 117.359375 271.703125 116.742188 271.3125 116.160156 C 270.921875 115.574219 270.480469 115.035156 269.980469 114.539062 C 269.484375 114.042969 268.945312 113.597656 268.359375 113.207031 C 267.773438 112.816406 267.160156 112.488281 266.507812 112.21875 C 265.859375 111.949219 265.191406 111.746094 264.5 111.609375 C 263.8125 111.472656 263.117188 111.402344 262.414062 111.402344 Z M 262.414062 111.402344 " fill-opacity="1" fill-rule="nonzero"/><path fill="#000000" d="M 101.886719 252.910156 C 101.890625 253.613281 101.960938 254.308594 102.097656 254.996094 C 102.234375 255.6875 102.441406 256.355469 102.710938 257.003906 C 102.980469 257.652344 103.308594 258.269531 103.699219 258.855469 C 104.089844 259.4375 104.535156 259.980469 105.03125 260.476562 C 105.527344 260.972656 106.070312 261.414062 106.65625 261.804688 C 107.238281 262.195312 107.855469 262.527344 108.503906 262.796875 C 109.152344 263.0625 109.824219 263.265625 110.511719 263.40625 C 111.203125 263.542969 111.898438 263.613281 112.601562 263.613281 L 262.414062 263.613281 C 263.117188 263.613281 263.8125 263.542969 264.5 263.40625 C 265.191406 263.269531 265.859375 263.0625 266.507812 262.796875 C 267.160156 262.527344 267.773438 262.195312 268.359375 261.804688 C 268.945312 261.414062 269.484375 260.972656 269.980469 260.476562 C 270.480469 259.980469 270.921875 259.4375 271.3125 258.855469 C 271.703125 258.269531 272.035156 257.652344 272.304688 257.003906 C 272.574219 256.355469 272.777344 255.6875 272.917969 254.996094 C 273.054688 254.308594 273.125 253.613281 273.125 252.910156 L 273.125 168.480469 L 101.886719 168.480469 Z M 152.242188 209.320312 C 152.683594 208.878906 153.164062 208.484375 153.683594 208.136719 C 154.203125 207.792969 154.75 207.5 155.328125 207.257812 C 155.90625 207.019531 156.5 206.839844 157.113281 206.71875 C 157.722656 206.597656 158.34375 206.535156 158.96875 206.535156 C 159.59375 206.535156 160.210938 206.597656 160.824219 206.71875 C 161.4375 206.839844 162.03125 207.019531 162.605469 207.257812 C 163.183594 207.5 163.734375 207.792969 164.25 208.136719 C 164.769531 208.484375 165.25 208.878906 165.691406 209.320312 L 177.992188 221.621094 L 209.320312 190.292969 C 209.765625 189.867188 210.246094 189.484375 210.765625 189.148438 C 211.285156 188.8125 211.832031 188.53125 212.402344 188.300781 C 212.976562 188.074219 213.566406 187.902344 214.175781 187.789062 C 214.78125 187.671875 215.394531 187.617188 216.011719 187.625 C 216.628906 187.628906 217.242188 187.695312 217.847656 187.820312 C 218.453125 187.945312 219.039062 188.125 219.609375 188.363281 C 220.179688 188.601562 220.71875 188.894531 221.230469 189.238281 C 221.746094 189.582031 222.21875 189.972656 222.65625 190.410156 C 223.09375 190.847656 223.484375 191.320312 223.828125 191.835938 C 224.171875 192.347656 224.464844 192.890625 224.703125 193.457031 C 224.941406 194.027344 225.125 194.617188 225.246094 195.21875 C 225.371094 195.824219 225.4375 196.4375 225.441406 197.054688 C 225.449219 197.671875 225.394531 198.285156 225.28125 198.890625 C 225.164062 199.5 224.996094 200.089844 224.765625 200.664062 C 224.535156 201.238281 224.253906 201.78125 223.917969 202.300781 C 223.582031 202.820312 223.203125 203.300781 222.773438 203.746094 L 184.71875 241.796875 C 184.277344 242.238281 183.796875 242.632812 183.277344 242.980469 C 182.757812 243.328125 182.210938 243.621094 181.632812 243.859375 C 181.058594 244.097656 180.460938 244.28125 179.847656 244.402344 C 179.238281 244.523438 178.617188 244.582031 177.992188 244.582031 C 177.371094 244.582031 176.75 244.523438 176.136719 244.402344 C 175.527344 244.28125 174.929688 244.097656 174.355469 243.859375 C 173.777344 243.621094 173.230469 243.328125 172.710938 242.980469 C 172.191406 242.632812 171.710938 242.238281 171.269531 241.796875 L 152.242188 222.773438 C 151.800781 222.332031 151.40625 221.851562 151.058594 221.332031 C 150.710938 220.8125 150.417969 220.261719 150.179688 219.6875 C 149.941406 219.109375 149.761719 218.515625 149.640625 217.902344 C 149.515625 217.289062 149.457031 216.671875 149.457031 216.046875 C 149.457031 215.421875 149.515625 214.804688 149.640625 214.191406 C 149.761719 213.578125 149.941406 212.984375 150.179688 212.40625 C 150.417969 211.828125 150.710938 211.28125 151.058594 210.761719 C 151.40625 210.242188 151.800781 209.761719 152.242188 209.320312 Z M 152.242188 209.320312 " fill-opacity="1" fill-rule="nonzero"/><g clip-path="url(#c7082a4ed5)"><path fill="#000000" d="M 187.507812 6.757812 C 184.550781 6.757812 181.59375 6.828125 178.636719 6.976562 C 175.683594 7.121094 172.734375 7.335938 169.789062 7.628906 C 166.847656 7.917969 163.910156 8.28125 160.984375 8.714844 C 158.058594 9.148438 155.144531 9.652344 152.246094 10.230469 C 149.34375 10.808594 146.457031 11.457031 143.589844 12.175781 C 140.71875 12.894531 137.867188 13.679688 135.039062 14.539062 C 132.207031 15.398438 129.398438 16.328125 126.613281 17.324219 C 123.828125 18.320312 121.070312 19.382812 118.335938 20.515625 C 115.605469 21.648438 112.902344 22.847656 110.226562 24.109375 C 107.550781 25.375 104.910156 26.707031 102.300781 28.101562 C 99.691406 29.496094 97.121094 30.953125 94.582031 32.472656 C 92.046875 33.992188 89.546875 35.574219 87.085938 37.21875 C 84.628906 38.863281 82.210938 40.566406 79.835938 42.328125 C 77.457031 44.089844 75.128906 45.910156 72.839844 47.785156 C 70.554688 49.660156 68.316406 51.59375 66.121094 53.578125 C 63.929688 55.566406 61.789062 57.605469 59.699219 59.699219 C 57.605469 61.789062 55.566406 63.929688 53.582031 66.121094 C 51.59375 68.316406 49.660156 70.554688 47.785156 72.839844 C 45.910156 75.128906 44.089844 77.457031 42.328125 79.835938 C 40.566406 82.210938 38.863281 84.628906 37.21875 87.085938 C 35.574219 89.546875 33.992188 92.046875 32.472656 94.582031 C 30.953125 97.121094 29.496094 99.691406 28.101562 102.300781 C 26.707031 104.910156 25.375 107.550781 24.109375 110.226562 C 22.847656 112.902344 21.648438 115.605469 20.515625 118.335938 C 19.382812 121.070312 18.320312 123.828125 17.324219 126.613281 C 16.328125 129.398438 15.398438 132.207031 14.539062 135.039062 C 13.679688 137.867188 12.894531 140.71875 12.175781 143.589844 C 11.457031 146.457031 10.808594 149.34375 10.230469 152.246094 C 9.652344 155.144531 9.148438 158.058594 8.714844 160.984375 C 8.28125 163.910156 7.917969 166.847656 7.628906 169.789062 C 7.335938 172.734375 7.121094 175.683594 6.976562 178.636719 C 6.828125 181.59375 6.757812 184.550781 6.757812 187.507812 C 6.757812 190.464844 6.828125 193.421875 6.976562 196.375 C 7.121094 199.332031 7.335938 202.28125 7.628906 205.222656 C 7.917969 208.167969 8.28125 211.101562 8.714844 214.027344 C 9.148438 216.953125 9.652344 219.867188 10.230469 222.769531 C 10.808594 225.671875 11.457031 228.554688 12.175781 231.425781 C 12.894531 234.296875 13.679688 237.144531 14.539062 239.976562 C 15.398438 242.808594 16.328125 245.613281 17.324219 248.398438 C 18.320312 251.183594 19.382812 253.945312 20.515625 256.675781 C 21.648438 259.410156 22.847656 262.113281 24.109375 264.789062 C 25.375 267.460938 26.707031 270.101562 28.101562 272.710938 C 29.496094 275.320312 30.953125 277.894531 32.472656 280.429688 C 33.992188 282.96875 35.574219 285.464844 37.21875 287.925781 C 38.863281 290.386719 40.566406 292.804688 42.328125 295.179688 C 44.089844 297.554688 45.910156 299.886719 47.785156 302.171875 C 49.660156 304.460938 51.59375 306.699219 53.582031 308.890625 C 55.566406 311.082031 57.605469 313.226562 59.699219 315.316406 C 61.789062 317.410156 63.929688 319.449219 66.121094 321.433594 C 68.316406 323.421875 70.554688 325.351562 72.839844 327.230469 C 75.128906 329.105469 77.457031 330.925781 79.835938 332.6875 C 82.210938 334.449219 84.628906 336.152344 87.085938 337.796875 C 89.546875 339.4375 92.046875 341.019531 94.582031 342.542969 C 97.121094 344.0625 99.691406 345.519531 102.300781 346.914062 C 104.910156 348.308594 107.550781 349.636719 110.226562 350.902344 C 112.902344 352.167969 115.605469 353.367188 118.335938 354.5 C 121.070312 355.628906 123.828125 356.695312 126.613281 357.691406 C 129.398438 358.6875 132.207031 359.613281 135.039062 360.472656 C 137.867188 361.332031 140.71875 362.121094 143.589844 362.839844 C 146.457031 363.558594 149.34375 364.207031 152.246094 364.785156 C 155.144531 365.359375 158.058594 365.867188 160.984375 366.300781 C 163.910156 366.734375 166.847656 367.097656 169.789062 367.386719 C 172.734375 367.675781 175.683594 367.894531 178.636719 368.039062 C 181.59375 368.183594 184.550781 368.257812 187.507812 368.257812 C 190.464844 368.257812 193.421875 368.183594 196.375 368.039062 C 199.332031 367.894531 202.28125 367.675781 205.222656 367.386719 C 208.167969 367.097656 211.101562 366.734375 214.027344 366.300781 C 216.953125 365.867188 219.867188 365.359375 222.769531 364.785156 C 225.671875 364.207031 228.554688 363.558594 231.425781 362.839844 C 234.296875 362.121094 237.144531 361.332031 239.976562 360.472656 C 242.808594 359.613281 245.613281 358.6875 248.398438 357.691406 C 251.183594 356.695312 253.945312 355.628906 256.675781 354.5 C 259.410156 353.367188 262.113281 352.167969 264.789062 350.902344 C 267.460938 349.636719 270.101562 348.308594 272.710938 346.914062 C 275.320312 345.519531 277.894531 344.0625 280.429688 342.542969 C 282.96875 341.019531 285.464844 339.4375 287.925781 337.796875 C 290.386719 336.152344 292.804688 334.449219 295.179688 332.6875 C 297.554688 330.925781 299.886719 329.105469 302.171875 327.230469 C 304.460938 325.351562 306.699219 323.421875 308.890625 321.433594 C 311.082031 319.449219 313.226562 317.410156 315.316406 315.316406 C 317.410156 313.226562 319.449219 311.082031 321.433594 308.890625 C 323.421875 306.699219 325.351562 304.460938 327.230469 302.171875 C 329.105469 299.886719 330.925781 297.554688 332.6875 295.179688 C 334.449219 292.804688 336.152344 290.386719 337.796875 287.925781 C 339.4375 285.464844 341.019531 282.96875 342.542969 280.429688 C 344.0625 277.894531 345.519531 275.320312 346.914062 272.710938 C 348.308594 270.101562 349.636719 267.460938 350.902344 264.789062 C 352.167969 262.113281 353.367188 259.410156 354.5 256.675781 C 355.628906 253.945312 356.695312 251.183594 357.691406 248.398438 C 358.6875 245.613281 359.613281 242.808594 360.472656 239.976562 C 361.332031 237.144531 362.121094 234.296875 362.839844 231.425781 C 363.558594 228.554688 364.207031 225.671875 364.785156 222.769531 C 365.359375 219.867188 365.867188 216.953125 366.300781 214.027344 C 366.734375 211.101562 367.097656 208.167969 367.386719 205.222656 C 367.675781 202.28125 367.894531 199.332031 368.039062 196.375 C 368.183594 193.421875 368.257812 190.464844 368.257812 187.507812 C 368.253906 184.550781 368.179688 181.59375 368.03125 178.640625 C 367.882812 175.6875 367.660156 172.738281 367.367188 169.796875 C 367.074219 166.855469 366.710938 163.921875 366.273438 160.996094 C 365.839844 158.070312 365.332031 155.15625 364.75 152.257812 C 364.171875 149.359375 363.523438 146.472656 362.800781 143.605469 C 362.078125 140.738281 361.289062 137.890625 360.429688 135.058594 C 359.570312 132.230469 358.640625 129.425781 357.640625 126.640625 C 356.644531 123.855469 355.578125 121.097656 354.445312 118.367188 C 353.3125 115.636719 352.113281 112.933594 350.847656 110.261719 C 349.582031 107.589844 348.25 104.949219 346.855469 102.339844 C 345.460938 99.734375 344.003906 97.164062 342.480469 94.625 C 340.960938 92.089844 339.378906 89.59375 337.734375 87.136719 C 336.089844 84.675781 334.386719 82.261719 332.625 79.886719 C 330.863281 77.511719 329.042969 75.179688 327.167969 72.894531 C 325.292969 70.609375 323.359375 68.371094 321.375 66.179688 C 319.386719 63.988281 317.347656 61.847656 315.257812 59.753906 C 313.167969 57.664062 311.027344 55.625 308.835938 53.640625 C 306.644531 51.652344 304.40625 49.722656 302.121094 47.847656 C 299.835938 45.96875 297.503906 44.152344 295.128906 42.390625 C 292.753906 40.625 290.335938 38.921875 287.878906 37.28125 C 285.421875 35.636719 282.921875 34.054688 280.386719 32.53125 C 277.851562 31.011719 275.28125 29.554688 272.671875 28.160156 C 270.066406 26.761719 267.425781 25.433594 264.753906 24.167969 C 262.078125 22.902344 259.378906 21.703125 256.644531 20.570312 C 253.914062 19.4375 251.15625 18.371094 248.375 17.371094 C 245.589844 16.375 242.78125 15.445312 239.953125 14.585938 C 237.125 13.722656 234.277344 12.933594 231.40625 12.214844 C 228.539062 11.492188 225.65625 10.84375 222.753906 10.261719 C 219.855469 9.683594 216.945312 9.175781 214.019531 8.738281 C 211.09375 8.304688 208.160156 7.9375 205.21875 7.644531 C 202.273438 7.351562 199.328125 7.132812 196.375 6.984375 C 193.417969 6.835938 190.464844 6.761719 187.507812 6.757812 Z M 292.152344 252.910156 C 292.152344 253.882812 292.101562 254.855469 292.003906 255.824219 C 291.910156 256.792969 291.765625 257.753906 291.574219 258.707031 C 291.382812 259.664062 291.144531 260.605469 290.863281 261.539062 C 290.578125 262.46875 290.25 263.382812 289.878906 264.28125 C 289.503906 265.183594 289.089844 266.0625 288.628906 266.917969 C 288.167969 267.777344 287.667969 268.609375 287.128906 269.421875 C 286.585938 270.230469 286.007812 271.011719 285.390625 271.761719 C 284.773438 272.515625 284.117188 273.234375 283.429688 273.921875 C 282.742188 274.613281 282.019531 275.265625 281.269531 275.882812 C 280.515625 276.5 279.734375 277.078125 278.925781 277.621094 C 278.117188 278.160156 277.28125 278.660156 276.421875 279.121094 C 275.566406 279.578125 274.6875 279.996094 273.789062 280.367188 C 272.886719 280.742188 271.972656 281.070312 271.042969 281.351562 C 270.109375 281.636719 269.167969 281.871094 268.210938 282.0625 C 267.257812 282.253906 266.296875 282.398438 265.328125 282.492188 C 264.359375 282.589844 263.386719 282.636719 262.414062 282.636719 L 112.601562 282.636719 C 111.625 282.636719 110.65625 282.589844 109.6875 282.492188 C 108.71875 282.398438 107.757812 282.253906 106.800781 282.0625 C 105.847656 281.871094 104.902344 281.636719 103.972656 281.351562 C 103.042969 281.070312 102.125 280.742188 101.226562 280.367188 C 100.328125 279.996094 99.449219 279.578125 98.589844 279.121094 C 97.730469 278.660156 96.898438 278.160156 96.089844 277.621094 C 95.277344 277.078125 94.5 276.5 93.746094 275.882812 C 92.992188 275.265625 92.273438 274.613281 91.585938 273.921875 C 90.894531 273.234375 90.242188 272.515625 89.625 271.761719 C 89.007812 271.011719 88.425781 270.230469 87.886719 269.421875 C 87.34375 268.609375 86.84375 267.777344 86.386719 266.917969 C 85.925781 266.0625 85.507812 265.183594 85.136719 264.28125 C 84.761719 263.382812 84.433594 262.46875 84.152344 261.539062 C 83.867188 260.605469 83.632812 259.664062 83.441406 258.707031 C 83.25 257.753906 83.105469 256.792969 83.007812 255.824219 C 82.914062 254.855469 82.863281 253.882812 82.863281 252.910156 L 82.863281 122.105469 C 82.863281 121.128906 82.914062 120.160156 83.007812 119.191406 C 83.105469 118.222656 83.25 117.261719 83.441406 116.304688 C 83.632812 115.351562 83.867188 114.40625 84.152344 113.476562 C 84.433594 112.546875 84.761719 111.628906 85.136719 110.730469 C 85.507812 109.832031 85.925781 108.953125 86.386719 108.09375 C 86.84375 107.238281 87.34375 106.402344 87.886719 105.59375 C 88.425781 104.785156 89.007812 104.003906 89.625 103.25 C 90.242188 102.5 90.894531 101.777344 91.585938 101.089844 C 92.273438 100.402344 92.992188 99.75 93.746094 99.132812 C 94.5 98.515625 95.277344 97.933594 96.089844 97.394531 C 96.898438 96.851562 97.730469 96.351562 98.589844 95.894531 C 99.449219 95.433594 100.328125 95.019531 101.226562 94.644531 C 102.125 94.273438 103.042969 93.945312 103.972656 93.660156 C 104.902344 93.378906 105.847656 93.140625 106.800781 92.953125 C 107.757812 92.761719 108.71875 92.617188 109.6875 92.519531 C 110.65625 92.425781 111.625 92.375 112.601562 92.375 L 130.429688 92.375 L 130.429688 82.863281 C 130.429688 82.238281 130.488281 81.617188 130.609375 81.007812 C 130.734375 80.394531 130.914062 79.796875 131.152344 79.222656 C 131.390625 78.644531 131.683594 78.097656 132.03125 77.578125 C 132.378906 77.058594 132.773438 76.578125 133.214844 76.136719 C 133.65625 75.695312 134.136719 75.300781 134.65625 74.953125 C 135.175781 74.605469 135.722656 74.3125 136.300781 74.074219 C 136.878906 73.835938 137.472656 73.652344 138.085938 73.53125 C 138.699219 73.410156 139.316406 73.347656 139.941406 73.347656 C 140.566406 73.347656 141.183594 73.410156 141.796875 73.53125 C 142.410156 73.652344 143.003906 73.835938 143.582031 74.074219 C 144.160156 74.3125 144.707031 74.605469 145.226562 74.953125 C 145.746094 75.300781 146.226562 75.695312 146.667969 76.136719 C 147.109375 76.578125 147.503906 77.058594 147.851562 77.578125 C 148.199219 78.097656 148.492188 78.644531 148.730469 79.222656 C 148.96875 79.796875 149.148438 80.394531 149.273438 81.007812 C 149.394531 81.617188 149.453125 82.238281 149.453125 82.863281 L 149.453125 92.375 L 177.992188 92.375 L 177.992188 82.863281 C 177.992188 82.238281 178.054688 81.617188 178.175781 81.007812 C 178.296875 80.394531 178.480469 79.796875 178.71875 79.222656 C 178.957031 78.644531 179.25 78.097656 179.597656 77.578125 C 179.945312 77.058594 180.339844 76.578125 180.78125 76.136719 C 181.222656 75.695312 181.703125 75.300781 182.222656 74.953125 C 182.742188 74.605469 183.289062 74.3125 183.867188 74.074219 C 184.445312 73.835938 185.039062 73.652344 185.652344 73.53125 C 186.265625 73.410156 186.882812 73.347656 187.507812 73.347656 C 188.132812 73.347656 188.75 73.410156 189.363281 73.53125 C 189.976562 73.652344 190.570312 73.835938 191.148438 74.074219 C 191.722656 74.3125 192.273438 74.605469 192.792969 74.953125 C 193.3125 75.300781 193.792969 75.695312 194.234375 76.136719 C 194.675781 76.578125 195.070312 77.058594 195.417969 77.578125 C 195.765625 78.097656 196.058594 78.644531 196.296875 79.222656 C 196.535156 79.796875 196.714844 80.394531 196.835938 81.007812 C 196.960938 81.617188 197.019531 82.238281 197.019531 82.863281 L 197.019531 92.375 L 225.558594 92.375 L 225.558594 82.863281 C 225.558594 82.238281 225.621094 81.617188 225.742188 81.007812 C 225.863281 80.394531 226.042969 79.796875 226.285156 79.222656 C 226.523438 78.644531 226.816406 78.097656 227.164062 77.578125 C 227.511719 77.058594 227.902344 76.578125 228.347656 76.136719 C 228.789062 75.695312 229.269531 75.300781 229.789062 74.953125 C 230.308594 74.605469 230.855469 74.3125 231.433594 74.074219 C 232.007812 73.835938 232.605469 73.652344 233.21875 73.53125 C 233.828125 73.410156 234.449219 73.347656 235.074219 73.347656 C 235.699219 73.347656 236.316406 73.410156 236.929688 73.53125 C 237.542969 73.652344 238.136719 73.835938 238.714844 74.074219 C 239.289062 74.3125 239.839844 74.605469 240.359375 74.953125 C 240.878906 75.300781 241.359375 75.695312 241.800781 76.136719 C 242.242188 76.578125 242.636719 77.058594 242.984375 77.578125 C 243.328125 78.097656 243.621094 78.644531 243.863281 79.222656 C 244.101562 79.796875 244.28125 80.394531 244.402344 81.007812 C 244.523438 81.617188 244.585938 82.238281 244.585938 82.863281 L 244.585938 92.375 L 262.414062 92.375 C 263.386719 92.375 264.359375 92.425781 265.328125 92.519531 C 266.296875 92.617188 267.257812 92.761719 268.210938 92.953125 C 269.167969 93.140625 270.109375 93.378906 271.042969 93.660156 C 271.972656 93.945312 272.886719 94.273438 273.789062 94.644531 C 274.6875 95.019531 275.566406 95.433594 276.421875 95.894531 C 277.28125 96.351562 278.117188 96.851562 278.925781 97.394531 C 279.734375 97.933594 280.515625 98.515625 281.269531 99.132812 C 282.019531 99.75 282.742188 100.402344 283.429688 101.089844 C 284.117188 101.777344 284.773438 102.5 285.390625 103.25 C 286.007812 104.003906 286.585938 104.785156 287.128906 105.59375 C 287.667969 106.402344 288.167969 107.238281 288.628906 108.09375 C 289.089844 108.953125 289.503906 109.832031 289.878906 110.730469 C 290.25 111.628906 290.578125 112.546875 290.863281 113.476562 C 291.144531 114.40625 291.382812 115.351562 291.574219 116.304688 C 291.765625 117.261719 291.910156 118.222656 292.003906 119.191406 C 292.101562 120.160156 292.152344 121.128906 292.152344 122.105469 Z M 292.152344 252.910156 " fill-opacity="1" fill-rule="nonzero"/></g></svg>