<svg xmlns="http://www.w3.org/2000/svg" xmlns:xlink="http://www.w3.org/1999/xlink" width="500" zoomAndPan="magnify" viewBox="0 0 375 374.999991" height="500" preserveAspectRatio="xMidYMid meet" version="1.0"><defs><clipPath id="7ce51fb51a"><path d="M 3.007812 12.769531 L 372 12.769531 L 372 362.269531 L 3.007812 362.269531 Z M 3.007812 12.769531 " clip-rule="nonzero"/></clipPath></defs><g clip-path="url(#7ce51fb51a)"><path fill="#ffffff" d="M 177.746094 125.121094 C 212.195312 125.121094 240.121094 153.046875 240.121094 187.496094 C 240.121094 221.945312 212.195312 249.871094 177.746094 249.871094 C 143.296875 249.871094 115.371094 221.945312 115.371094 187.496094 C 115.371094 153.046875 143.296875 125.121094 177.746094 125.121094 Z M 264.957031 255.25 L 307.6875 297.941406 L 177.746094 297.941406 C 116.746094 297.941406 67.304688 248.496094 67.304688 187.496094 C 67.304688 126.496094 116.746094 77.050781 177.746094 77.050781 C 238.75 77.050781 288.191406 126.496094 288.191406 187.496094 C 288.191406 202.566406 285.179688 216.910156 279.722656 229.996094 C 275.90625 239.074219 270.949219 247.582031 264.957031 255.25 Z M 307.6875 297.941406 L 313.179688 297.941406 C 326.378906 281.726562 336.757812 263.109375 343.507812 242.851562 C 349.347656 225.457031 352.472656 206.839844 352.472656 187.496094 C 352.472656 91.015625 274.265625 12.769531 177.746094 12.769531 C 81.265625 12.769531 3.019531 91.015625 3.019531 187.496094 C 3.019531 284.015625 81.265625 362.222656 177.746094 362.222656 L 371.96875 362.222656 L 310.664062 300.914062 Z M 307.6875 297.941406 " fill-opacity="1" fill-rule="evenodd"/></g></svg>