<svg xmlns="http://www.w3.org/2000/svg" xmlns:xlink="http://www.w3.org/1999/xlink" width="500" zoomAndPan="magnify" viewBox="0 0 375 374.999991" height="500" preserveAspectRatio="xMidYMid meet" version="1.0"><defs><clipPath id="0858db7367"><path d="M 8.375 8.375 L 366.875 8.375 L 366.875 366.875 L 8.375 366.875 Z M 8.375 8.375 " clip-rule="nonzero"/></clipPath></defs><rect x="-37.5" width="450" fill="#ffffff" y="-37.499999" height="449.999989" fill-opacity="1"/><rect x="-37.5" width="450" fill="#000000" y="-37.499999" height="449.999989" fill-opacity="1"/><g clip-path="url(#0858db7367)"><path fill="#ffffff" d="M 187.496094 8.375 C 88.570312 8.375 8.375 88.570312 8.375 187.496094 C 8.375 286.421875 88.570312 366.617188 187.496094 366.617188 C 286.421875 366.617188 366.617188 286.421875 366.617188 187.496094 C 366.617188 88.570312 286.421875 8.375 187.496094 8.375 Z M 291.652344 192.558594 C 286.546875 197.664062 279.011719 198.851562 272.769531 196.128906 L 272.769531 264.070312 C 272.769531 278.199219 261.316406 289.652344 247.1875 289.652344 L 127.804688 289.652344 C 113.675781 289.652344 102.222656 278.195312 102.222656 264.070312 L 102.222656 196.128906 C 95.980469 198.851562 88.445312 197.664062 83.339844 192.558594 C 76.679688 185.898438 76.679688 175.101562 83.339844 168.441406 L 175.4375 76.34375 C 182.097656 69.683594 192.894531 69.683594 199.554688 76.34375 L 291.652344 168.4375 C 298.3125 175.101562 298.3125 185.898438 291.652344 192.558594 Z M 291.652344 192.558594 " fill-opacity="1" fill-rule="nonzero"/></g><path fill="#ffffff" d="M 208.816406 195.847656 L 166.175781 195.847656 C 161.46875 195.847656 157.648438 199.667969 157.648438 204.375 L 157.648438 255.542969 C 157.648438 260.25 161.46875 264.070312 166.175781 264.070312 L 208.816406 264.070312 C 213.523438 264.070312 217.34375 260.25 217.34375 255.542969 L 217.34375 204.375 C 217.34375 199.667969 213.523438 195.847656 208.816406 195.847656 Z M 208.816406 195.847656 " fill-opacity="1" fill-rule="nonzero"/></svg>