<svg xmlns="http://www.w3.org/2000/svg" xmlns:xlink="http://www.w3.org/1999/xlink" width="500" zoomAndPan="magnify" viewBox="0 0 375 374.999991" height="500" preserveAspectRatio="xMidYMid meet" version="1.0">
<defs>
<clipPath id="d060f4a982">
<path d="M 7.925781 7.925781 L 367.175781 7.925781 L 367.175781 367.175781 L 7.925781 367.175781 Z M 7.925781 7.925781 " clip-rule="nonzero"/>
</clipPath>
</defs>
<g clip-path="url(#d060f4a982)">
<path fill="#000000" d="M 367.070312 187.5 C 367.070312 286.695312 286.695312 367.070312 187.5 367.070312 C 88.304688 367.070312 7.925781 286.695312 7.925781 187.5 C 7.925781 88.304688 88.304688 7.925781 187.5 7.925781 C 286.695312 7.925781 367.070312 88.304688 367.070312 187.5 Z M 367.070312 187.5 " fill-opacity="1" fill-rule="nonzero"/>
</g>
<path fill="#ffffff" d="M 300.917969 165.519531 C 300.917969 229.519531 209.980469 282.671875 190.945312 293.160156 C 188.792969 294.378906 186.132812 294.378906 183.980469 293.160156 C 164.945312 282.746094 74.007812 229.589844 74.007812 165.519531 C 74.007812 165.089844 74.007812 164.585938 74.007812 164.15625 C 74.007812 163.867188 74.007812 163.507812 74.007812 163.222656 C 74.007812 161.570312 74.082031 159.917969 74.152344 158.265625 C 76.453125 125.871094 100.875 100.371094 130.683594 100.371094 C 162 100.371094 187.425781 128.527344 187.425781 163.222656 C 187.425781 128.527344 212.855469 100.371094 244.171875 100.371094 C 274.269531 100.371094 298.90625 126.300781 300.773438 159.125 C 300.84375 160.492188 300.917969 161.855469 300.917969 163.222656 L 300.917969 163.292969 C 300.917969 164.082031 300.917969 164.800781 300.917969 165.519531 Z M 300.917969 165.519531 " fill-opacity="1" fill-rule="nonzero"/>
</svg>