<svg xmlns="http://www.w3.org/2000/svg" xmlns:xlink="http://www.w3.org/1999/xlink" width="500" zoomAndPan="magnify" viewBox="0 0 375 374.999991" height="500" preserveAspectRatio="xMidYMid meet" version="1.0"><defs><g/><clipPath id="628a4ee0dd"><path d="M 37.5 3.308594 L 320.25 3.308594 L 320.25 271.058594 L 37.5 271.058594 Z M 37.5 3.308594 " clip-rule="nonzero"/></clipPath></defs><rect x="-37.5" width="450" fill="#ffffff" y="-37.499999" height="449.999989" fill-opacity="1"/><rect x="-37.5" width="450" fill="#000000" y="-37.499999" height="449.999989" fill-opacity="1"/><g clip-path="url(#628a4ee0dd)"><path fill="#ffffff" d="M 171.371094 89.378906 C 197.765625 89.378906 219.15625 110.773438 219.15625 137.164062 C 219.15625 163.558594 197.765625 184.949219 171.371094 184.949219 C 144.980469 184.949219 123.585938 163.558594 123.585938 137.164062 C 123.585938 110.773438 144.980469 89.378906 171.371094 89.378906 Z M 238.183594 189.070312 L 270.917969 221.777344 L 171.371094 221.777344 C 124.640625 221.777344 86.761719 183.898438 86.761719 137.164062 C 86.761719 90.433594 124.640625 52.554688 171.371094 52.554688 C 218.105469 52.554688 255.984375 90.433594 255.984375 137.164062 C 255.984375 148.710938 253.675781 159.699219 249.496094 169.722656 C 246.574219 176.679688 242.773438 183.199219 238.183594 189.070312 Z M 270.917969 221.777344 L 275.125 221.777344 C 285.238281 209.355469 293.1875 195.09375 298.363281 179.574219 C 302.832031 166.246094 305.230469 151.984375 305.230469 137.164062 C 305.230469 63.253906 245.316406 3.308594 171.371094 3.308594 C 97.457031 3.308594 37.515625 63.253906 37.515625 137.164062 C 37.515625 211.109375 97.457031 271.023438 171.371094 271.023438 L 320.164062 271.023438 L 273.199219 224.054688 Z M 270.917969 221.777344 " fill-opacity="1" fill-rule="evenodd"/></g><g fill="#ffffff" fill-opacity="1"><g transform="translate(15.671938, 347.862343)"><g><path d="M 49.84375 -7.921875 L 55.5 -6.015625 L 52.125 0.953125 L 44.78125 -1.390625 L 41.984375 -3.8125 C 40.222656 -2.300781 38.109375 -1.128906 35.640625 -0.296875 C 33.171875 0.535156 30.660156 0.953125 28.109375 0.953125 C 24.585938 0.953125 21.257812 0.234375 18.125 -1.203125 C 15 -2.648438 12.269531 -4.597656 9.9375 -7.046875 C 7.613281 -9.492188 5.78125 -12.351562 4.4375 -15.625 C 3.09375 -18.90625 2.421875 -22.359375 2.421875 -25.984375 C 2.421875 -29.648438 3.09375 -33.097656 4.4375 -36.328125 C 5.78125 -39.566406 7.613281 -42.40625 9.9375 -44.84375 C 12.269531 -47.289062 15 -49.222656 18.125 -50.640625 C 21.257812 -52.066406 24.585938 -52.78125 28.109375 -52.78125 C 31.640625 -52.78125 34.957031 -52.066406 38.0625 -50.640625 C 41.164062 -49.222656 43.878906 -47.289062 46.203125 -44.84375 C 48.535156 -42.40625 50.375 -39.566406 51.71875 -36.328125 C 53.0625 -33.097656 53.734375 -29.648438 53.734375 -25.984375 C 53.734375 -22.847656 53.226562 -19.882812 52.21875 -17.09375 C 51.21875 -14.3125 49.863281 -11.796875 48.15625 -9.546875 Z M 40.078125 -16.953125 C 41.742188 -19.597656 42.578125 -22.609375 42.578125 -25.984375 C 42.578125 -28.191406 42.195312 -30.257812 41.4375 -32.1875 C 40.675781 -34.125 39.644531 -35.8125 38.34375 -37.25 C 37.050781 -38.695312 35.523438 -39.835938 33.765625 -40.671875 C 32.003906 -41.503906 30.117188 -41.921875 28.109375 -41.921875 C 26.109375 -41.921875 24.222656 -41.503906 22.453125 -40.671875 C 20.691406 -39.835938 19.148438 -38.695312 17.828125 -37.25 C 16.515625 -35.8125 15.476562 -34.125 14.71875 -32.1875 C 13.957031 -30.257812 13.578125 -28.191406 13.578125 -25.984375 C 13.578125 -23.785156 13.957031 -21.726562 14.71875 -19.8125 C 15.476562 -17.90625 16.515625 -16.226562 17.828125 -14.78125 C 19.148438 -13.34375 20.691406 -12.207031 22.453125 -11.375 C 24.222656 -10.539062 26.109375 -10.125 28.109375 -10.125 C 29.921875 -10.125 31.660156 -10.46875 33.328125 -11.15625 L 28.328125 -15.484375 L 34.71875 -21.953125 Z M 40.078125 -16.953125 "/></g></g></g><g fill="#ffffff" fill-opacity="1"><g transform="translate(73.664551, 347.862343)"><g><path d="M 14.609375 -10.0625 L 35.96875 -10.0625 L 35.96875 0 L 3.453125 0 L 3.453125 -52.046875 L 14.609375 -52.046875 Z M 14.609375 -10.0625 "/></g></g></g><g fill="#ffffff" fill-opacity="1"><g transform="translate(110.368743, 347.862343)"><g><path d="M 28.046875 -52.78125 C 31.566406 -52.78125 34.890625 -52.066406 38.015625 -50.640625 C 41.148438 -49.222656 43.878906 -47.289062 46.203125 -44.84375 C 48.535156 -42.40625 50.375 -39.566406 51.71875 -36.328125 C 53.0625 -33.097656 53.734375 -29.648438 53.734375 -25.984375 C 53.734375 -22.359375 53.0625 -18.90625 51.71875 -15.625 C 50.375 -12.351562 48.535156 -9.492188 46.203125 -7.046875 C 43.878906 -4.597656 41.148438 -2.648438 38.015625 -1.203125 C 34.890625 0.234375 31.566406 0.953125 28.046875 0.953125 C 24.515625 0.953125 21.179688 0.234375 18.046875 -1.203125 C 14.921875 -2.648438 12.207031 -4.597656 9.90625 -7.046875 C 7.601562 -9.492188 5.78125 -12.351562 4.4375 -15.625 C 3.09375 -18.90625 2.421875 -22.359375 2.421875 -25.984375 C 2.421875 -29.648438 3.09375 -33.097656 4.4375 -36.328125 C 5.78125 -39.566406 7.601562 -42.40625 9.90625 -44.84375 C 12.207031 -47.289062 14.921875 -49.222656 18.046875 -50.640625 C 21.179688 -52.066406 24.515625 -52.78125 28.046875 -52.78125 Z M 28.046875 -10.125 C 30.046875 -10.125 31.925781 -10.539062 33.6875 -11.375 C 35.457031 -12.207031 37 -13.34375 38.3125 -14.78125 C 39.632812 -16.226562 40.675781 -17.90625 41.4375 -19.8125 C 42.195312 -21.726562 42.578125 -23.785156 42.578125 -25.984375 C 42.578125 -28.191406 42.195312 -30.257812 41.4375 -32.1875 C 40.675781 -34.125 39.632812 -35.8125 38.3125 -37.25 C 37 -38.695312 35.457031 -39.835938 33.6875 -40.671875 C 31.925781 -41.503906 30.046875 -41.921875 28.046875 -41.921875 C 26.035156 -41.921875 24.148438 -41.503906 22.390625 -40.671875 C 20.628906 -39.835938 19.085938 -38.695312 17.765625 -37.25 C 16.441406 -35.8125 15.398438 -34.125 14.640625 -32.1875 C 13.878906 -30.257812 13.5 -28.191406 13.5 -25.984375 C 13.5 -23.785156 13.878906 -21.726562 14.640625 -19.8125 C 15.398438 -17.90625 16.441406 -16.226562 17.765625 -14.78125 C 19.085938 -13.34375 20.628906 -12.207031 22.390625 -11.375 C 24.148438 -10.539062 26.035156 -10.125 28.046875 -10.125 Z M 28.046875 -10.125 "/></g></g></g><g fill="#ffffff" fill-opacity="1"><g transform="translate(166.526162, 347.862343)"><g><path d="M 29.21875 -29.4375 L 48.890625 -29.4375 L 48.890625 -10.34375 C 45.953125 -6.625 42.695312 -3.8125 39.125 -1.90625 C 35.550781 0 31.804688 0.953125 27.890625 0.953125 C 24.367188 0.953125 21.039062 0.234375 17.90625 -1.203125 C 14.78125 -2.648438 12.066406 -4.597656 9.765625 -7.046875 C 7.460938 -9.492188 5.640625 -12.34375 4.296875 -15.59375 C 2.953125 -18.851562 2.28125 -22.316406 2.28125 -25.984375 C 2.28125 -29.648438 2.953125 -33.097656 4.296875 -36.328125 C 5.640625 -39.566406 7.460938 -42.40625 9.765625 -44.84375 C 12.066406 -47.289062 14.78125 -49.222656 17.90625 -50.640625 C 21.039062 -52.066406 24.367188 -52.78125 27.890625 -52.78125 C 31.222656 -52.78125 34.367188 -52.164062 37.328125 -50.9375 C 40.285156 -49.71875 43.160156 -47.6875 45.953125 -44.84375 L 39.5 -37 C 37.4375 -38.90625 35.5 -40.1875 33.6875 -40.84375 C 31.882812 -41.507812 29.976562 -41.84375 27.96875 -41.84375 C 25.914062 -41.84375 23.992188 -41.425781 22.203125 -40.59375 C 20.421875 -39.757812 18.867188 -38.632812 17.546875 -37.21875 C 16.222656 -35.800781 15.179688 -34.125 14.421875 -32.1875 C 13.660156 -30.257812 13.28125 -28.191406 13.28125 -25.984375 C 13.28125 -23.785156 13.660156 -21.726562 14.421875 -19.8125 C 15.179688 -17.90625 16.222656 -16.226562 17.546875 -14.78125 C 18.867188 -13.34375 20.421875 -12.207031 22.203125 -11.375 C 23.992188 -10.539062 25.914062 -10.125 27.96875 -10.125 C 29.78125 -10.125 31.578125 -10.453125 33.359375 -11.109375 C 35.148438 -11.773438 36.953125 -12.867188 38.765625 -14.390625 L 38.765625 -20.046875 L 29.21875 -20.046875 Z M 29.21875 -29.4375 "/></g></g></g><g fill="#ffffff" fill-opacity="1"><g transform="translate(217.912021, 347.862343)"><g><path d="M 29.21875 -29.4375 L 48.890625 -29.4375 L 48.890625 -10.34375 C 45.953125 -6.625 42.695312 -3.8125 39.125 -1.90625 C 35.550781 0 31.804688 0.953125 27.890625 0.953125 C 24.367188 0.953125 21.039062 0.234375 17.90625 -1.203125 C 14.78125 -2.648438 12.066406 -4.597656 9.765625 -7.046875 C 7.460938 -9.492188 5.640625 -12.34375 4.296875 -15.59375 C 2.953125 -18.851562 2.28125 -22.316406 2.28125 -25.984375 C 2.28125 -29.648438 2.953125 -33.097656 4.296875 -36.328125 C 5.640625 -39.566406 7.460938 -42.40625 9.765625 -44.84375 C 12.066406 -47.289062 14.78125 -49.222656 17.90625 -50.640625 C 21.039062 -52.066406 24.367188 -52.78125 27.890625 -52.78125 C 31.222656 -52.78125 34.367188 -52.164062 37.328125 -50.9375 C 40.285156 -49.71875 43.160156 -47.6875 45.953125 -44.84375 L 39.5 -37 C 37.4375 -38.90625 35.5 -40.1875 33.6875 -40.84375 C 31.882812 -41.507812 29.976562 -41.84375 27.96875 -41.84375 C 25.914062 -41.84375 23.992188 -41.425781 22.203125 -40.59375 C 20.421875 -39.757812 18.867188 -38.632812 17.546875 -37.21875 C 16.222656 -35.800781 15.179688 -34.125 14.421875 -32.1875 C 13.660156 -30.257812 13.28125 -28.191406 13.28125 -25.984375 C 13.28125 -23.785156 13.660156 -21.726562 14.421875 -19.8125 C 15.179688 -17.90625 16.222656 -16.226562 17.546875 -14.78125 C 18.867188 -13.34375 20.421875 -12.207031 22.203125 -11.375 C 23.992188 -10.539062 25.914062 -10.125 27.96875 -10.125 C 29.78125 -10.125 31.578125 -10.453125 33.359375 -11.109375 C 35.148438 -11.773438 36.953125 -12.867188 38.765625 -14.390625 L 38.765625 -20.046875 L 29.21875 -20.046875 Z M 29.21875 -29.4375 "/></g></g></g><g fill="#ffffff" fill-opacity="1"><g transform="translate(269.297879, 347.862343)"><g><path d="M 3.53125 -52.046875 L 36.046875 -52.046875 L 36.046875 -41.921875 L 14.6875 -41.921875 L 14.6875 -32.515625 L 33.46875 -32.515625 L 33.46875 -22.390625 L 14.6875 -22.390625 L 14.6875 -10.0625 L 36.046875 -10.0625 L 36.046875 0 L 3.53125 0 Z M 3.53125 -52.046875 "/></g></g></g><g fill="#ffffff" fill-opacity="1"><g transform="translate(308.864987, 347.862343)"><g><path d="M 40.890625 -36.5625 C 40.890625 -34.894531 40.65625 -33.3125 40.1875 -31.8125 C 39.726562 -30.320312 39.082031 -28.953125 38.25 -27.703125 C 37.414062 -26.460938 36.410156 -25.363281 35.234375 -24.40625 C 34.054688 -23.445312 32.785156 -22.675781 31.421875 -22.09375 L 48.671875 0 L 35.671875 0 L 19.59375 -21 L 14.609375 -21 L 14.609375 0 L 3.453125 0 L 3.453125 -52.046875 L 25.90625 -52.046875 C 27.96875 -52.046875 29.914062 -51.640625 31.75 -50.828125 C 33.582031 -50.023438 35.171875 -48.925781 36.515625 -47.53125 C 37.859375 -46.132812 38.921875 -44.492188 39.703125 -42.609375 C 40.492188 -40.722656 40.890625 -38.707031 40.890625 -36.5625 Z M 24.515625 -31.125 C 25.929688 -31.125 27.15625 -31.648438 28.1875 -32.703125 C 29.21875 -33.753906 29.734375 -35.039062 29.734375 -36.5625 C 29.734375 -38.03125 29.21875 -39.289062 28.1875 -40.34375 C 27.15625 -41.394531 25.929688 -41.921875 24.515625 -41.921875 L 14.609375 -41.921875 L 14.609375 -31.125 Z M 24.515625 -31.125 "/></g></g></g></svg>