<svg xmlns="http://www.w3.org/2000/svg" xmlns:xlink="http://www.w3.org/1999/xlink" width="500" zoomAndPan="magnify" viewBox="0 0 375 374.999991" height="500" preserveAspectRatio="xMidYMid meet" version="1.0"><defs><g/></defs><rect x="-37.5" width="450" fill="#ffffff" y="-37.499999" height="449.999989" fill-opacity="1"/><rect x="-37.5" width="450" fill="#000000" y="-37.499999" height="449.999989" fill-opacity="1"/><g fill="#ffffff" fill-opacity="1"><g transform="translate(123.303031, 146.990874)"><g><path d="M 14.109375 0.796875 C 11.804688 0.796875 9.851562 0 8.25 -1.59375 C 6.65625 -3.195312 5.859375 -5.148438 5.859375 -7.453125 C 5.859375 -9.765625 6.65625 -11.71875 8.25 -13.3125 C 9.851562 -14.914062 11.804688 -15.71875 14.109375 -15.71875 C 16.328125 -15.71875 18.210938 -14.914062 19.765625 -13.3125 C 21.328125 -11.71875 22.109375 -9.765625 22.109375 -7.453125 C 22.109375 -5.148438 21.328125 -3.195312 19.765625 -1.59375 C 18.210938 0 16.328125 0.796875 14.109375 0.796875 Z M 14.109375 0.796875 "/></g></g></g><g fill="#ffffff" fill-opacity="1"><g transform="translate(151.263992, 146.990874)"><g/></g></g><g fill="#ffffff" fill-opacity="1"><g transform="translate(186.814364, 146.990874)"><g><path d="M 55.53125 -125.4375 L 19.046875 22.640625 L 7.0625 22.640625 L 43.40625 -125.4375 Z M 55.53125 -125.4375 "/></g></g></g><g fill="#ffffff" fill-opacity="1"><g transform="translate(8.928045, 332.890735)"><g><path d="M 39.6875 0.9375 C 33.5625 0.9375 28.078125 -0.148438 23.234375 -2.328125 C 18.398438 -4.503906 14.601562 -7.519531 11.84375 -11.375 C 9.09375 -15.238281 7.675781 -19.703125 7.59375 -24.765625 L 20.5 -24.765625 C 20.945312 -20.421875 22.742188 -16.757812 25.890625 -13.78125 C 29.046875 -10.8125 33.644531 -9.328125 39.6875 -9.328125 C 45.445312 -9.328125 49.992188 -10.765625 53.328125 -13.640625 C 56.660156 -16.523438 58.328125 -20.234375 58.328125 -24.765625 C 58.328125 -28.316406 57.347656 -31.203125 55.390625 -33.421875 C 53.441406 -35.640625 51 -37.328125 48.0625 -38.484375 C 45.132812 -39.640625 41.1875 -40.878906 36.21875 -42.203125 C 30.09375 -43.804688 25.1875 -45.40625 21.5 -47 C 17.820312 -48.601562 14.671875 -51.113281 12.046875 -54.53125 C 9.429688 -57.945312 8.125 -62.539062 8.125 -68.3125 C 8.125 -73.375 9.410156 -77.851562 11.984375 -81.75 C 14.554688 -85.65625 18.171875 -88.675781 22.828125 -90.8125 C 27.492188 -92.945312 32.84375 -94.015625 38.875 -94.015625 C 47.582031 -94.015625 54.707031 -91.835938 60.25 -87.484375 C 65.800781 -83.128906 68.929688 -77.359375 69.640625 -70.171875 L 56.328125 -70.171875 C 55.878906 -73.722656 54.015625 -76.851562 50.734375 -79.5625 C 47.453125 -82.269531 43.101562 -83.625 37.6875 -83.625 C 32.625 -83.625 28.492188 -82.3125 25.296875 -79.6875 C 22.097656 -77.070312 20.5 -73.410156 20.5 -68.703125 C 20.5 -65.335938 21.453125 -62.585938 23.359375 -60.453125 C 25.273438 -58.316406 27.628906 -56.691406 30.421875 -55.578125 C 33.222656 -54.472656 37.148438 -53.210938 42.203125 -51.796875 C 48.328125 -50.109375 53.253906 -48.441406 56.984375 -46.796875 C 60.710938 -45.160156 63.910156 -42.632812 66.578125 -39.21875 C 69.242188 -35.800781 70.578125 -31.160156 70.578125 -25.296875 C 70.578125 -20.773438 69.375 -16.515625 66.96875 -12.515625 C 64.570312 -8.523438 61.019531 -5.285156 56.3125 -2.796875 C 51.613281 -0.304688 46.070312 0.9375 39.6875 0.9375 Z M 39.6875 0.9375 "/></g></g></g><g fill="#ffffff" fill-opacity="1"><g transform="translate(87.085599, 332.890735)"><g><path d="M 22.375 -98.53125 L 22.375 0 L 10.25 0 L 10.25 -98.53125 Z M 22.375 -98.53125 "/></g></g></g><g fill="#ffffff" fill-opacity="1"><g transform="translate(119.839874, 332.890735)"><g><path d="M 5.71875 -36.75 C 5.71875 -44.207031 7.226562 -50.753906 10.25 -56.390625 C 13.269531 -62.023438 17.421875 -66.394531 22.703125 -69.5 C 27.984375 -72.613281 33.863281 -74.171875 40.34375 -74.171875 C 46.738281 -74.171875 52.285156 -72.789062 56.984375 -70.03125 C 61.691406 -67.28125 65.203125 -63.820312 67.515625 -59.65625 L 67.515625 -72.96875 L 79.765625 -72.96875 L 79.765625 0 L 67.515625 0 L 67.515625 -13.578125 C 65.117188 -9.316406 61.546875 -5.785156 56.796875 -2.984375 C 52.046875 -0.191406 46.519531 1.203125 40.21875 1.203125 C 33.738281 1.203125 27.878906 -0.394531 22.640625 -3.59375 C 17.398438 -6.789062 13.269531 -11.273438 10.25 -17.046875 C 7.226562 -22.816406 5.71875 -29.382812 5.71875 -36.75 Z M 67.515625 -36.625 C 67.515625 -42.125 66.40625 -46.914062 64.1875 -51 C 61.96875 -55.082031 58.96875 -58.210938 55.1875 -60.390625 C 51.414062 -62.566406 47.269531 -63.65625 42.75 -63.65625 C 38.21875 -63.65625 34.085938 -62.585938 30.359375 -60.453125 C 26.628906 -58.316406 23.65625 -55.207031 21.4375 -51.125 C 19.21875 -47.039062 18.109375 -42.25 18.109375 -36.75 C 18.109375 -31.15625 19.21875 -26.296875 21.4375 -22.171875 C 23.65625 -18.046875 26.628906 -14.894531 30.359375 -12.71875 C 34.085938 -10.539062 38.21875 -9.453125 42.75 -9.453125 C 47.269531 -9.453125 51.414062 -10.539062 55.1875 -12.71875 C 58.96875 -14.894531 61.96875 -18.046875 64.1875 -22.171875 C 66.40625 -26.296875 67.515625 -31.113281 67.515625 -36.625 Z M 67.515625 -36.625 "/></g></g></g><g fill="#ffffff" fill-opacity="1"><g transform="translate(209.847528, 332.890735)"><g><path d="M 36.078125 1.203125 C 30.492188 1.203125 25.476562 0.25 21.03125 -1.65625 C 16.59375 -3.570312 13.085938 -6.238281 10.515625 -9.65625 C 7.941406 -13.070312 6.523438 -17 6.265625 -21.4375 L 18.78125 -21.4375 C 19.132812 -17.800781 20.84375 -14.828125 23.90625 -12.515625 C 26.96875 -10.203125 30.984375 -9.046875 35.953125 -9.046875 C 40.566406 -9.046875 44.203125 -10.066406 46.859375 -12.109375 C 49.523438 -14.160156 50.859375 -16.738281 50.859375 -19.84375 C 50.859375 -23.039062 49.4375 -25.414062 46.59375 -26.96875 C 43.757812 -28.519531 39.367188 -30.050781 33.421875 -31.5625 C 28.003906 -32.976562 23.585938 -34.414062 20.171875 -35.875 C 16.753906 -37.34375 13.820312 -39.519531 11.375 -42.40625 C 8.9375 -45.289062 7.71875 -49.085938 7.71875 -53.796875 C 7.71875 -57.523438 8.828125 -60.941406 11.046875 -64.046875 C 13.265625 -67.148438 16.414062 -69.613281 20.5 -71.4375 C 24.582031 -73.257812 29.242188 -74.171875 34.484375 -74.171875 C 42.566406 -74.171875 49.09375 -72.128906 54.0625 -68.046875 C 59.03125 -63.960938 61.691406 -58.367188 62.046875 -51.265625 L 49.9375 -51.265625 C 49.664062 -55.078125 48.128906 -58.140625 45.328125 -60.453125 C 42.535156 -62.765625 38.789062 -63.921875 34.09375 -63.921875 C 29.738281 -63.921875 26.273438 -62.988281 23.703125 -61.125 C 21.128906 -59.257812 19.84375 -56.816406 19.84375 -53.796875 C 19.84375 -51.398438 20.617188 -49.425781 22.171875 -47.875 C 23.722656 -46.320312 25.675781 -45.078125 28.03125 -44.140625 C 30.382812 -43.210938 33.644531 -42.171875 37.8125 -41.015625 C 43.050781 -39.585938 47.3125 -38.1875 50.59375 -36.8125 C 53.882812 -35.4375 56.703125 -33.375 59.046875 -30.625 C 61.398438 -27.875 62.625 -24.28125 62.71875 -19.84375 C 62.71875 -15.84375 61.609375 -12.242188 59.390625 -9.046875 C 57.171875 -5.859375 54.039062 -3.351562 50 -1.53125 C 45.957031 0.289062 41.316406 1.203125 36.078125 1.203125 Z M 36.078125 1.203125 "/></g></g></g><g fill="#ffffff" fill-opacity="1"><g transform="translate(279.35049, 332.890735)"><g><path d="M 46.46875 -74.296875 C 51.976562 -74.296875 56.953125 -73.117188 61.390625 -70.765625 C 65.828125 -68.421875 69.304688 -64.894531 71.828125 -60.1875 C 74.359375 -55.476562 75.625 -49.753906 75.625 -43.015625 L 75.625 0 L 63.65625 0 L 63.65625 -41.28125 C 63.65625 -48.5625 61.832031 -54.128906 58.1875 -57.984375 C 54.550781 -61.847656 49.582031 -63.78125 43.28125 -63.78125 C 36.882812 -63.78125 31.800781 -61.78125 28.03125 -57.78125 C 24.257812 -53.789062 22.375 -47.976562 22.375 -40.34375 L 22.375 0 L 10.25 0 L 10.25 -98.53125 L 22.375 -98.53125 L 22.375 -62.578125 C 24.769531 -66.304688 28.070312 -69.191406 32.28125 -71.234375 C 36.5 -73.273438 41.226562 -74.296875 46.46875 -74.296875 Z M 46.46875 -74.296875 "/></g></g></g></svg>