<svg xmlns="http://www.w3.org/2000/svg" xmlns:xlink="http://www.w3.org/1999/xlink" width="500" zoomAndPan="magnify" viewBox="0 0 375 374.999991" height="500" preserveAspectRatio="xMidYMid meet" version="1.0"><defs><clipPath id="189bf0d718"><path d="M 8.804688 8.804688 L 366.554688 8.804688 L 366.554688 366.554688 L 8.804688 366.554688 Z M 8.804688 8.804688 " clip-rule="nonzero"/></clipPath></defs><g clip-path="url(#189bf0d718)"><path fill="#000000" d="M 187.679688 366.554688 C 286.46875 366.554688 366.554688 286.46875 366.554688 187.679688 C 366.554688 88.890625 286.46875 8.804688 187.679688 8.804688 C 88.890625 8.804688 8.804688 88.890625 8.804688 187.679688 C 8.804688 286.46875 88.890625 366.554688 187.679688 366.554688 Z M 273.65625 162.378906 C 286.21875 149.8125 286.21875 129.4375 273.65625 116.871094 L 258.488281 101.703125 C 245.921875 89.136719 225.546875 89.136719 212.980469 101.703125 L 273.652344 162.378906 Z M 258.484375 177.550781 L 175.058594 260.976562 L 114.382812 200.300781 L 197.808594 116.875 Z M 102.738281 218.996094 L 156.363281 272.621094 L 105.109375 282.871094 C 101.59375 283.574219 97.957031 282.472656 95.421875 279.9375 C 92.886719 277.402344 91.785156 273.765625 92.488281 270.25 Z M 102.738281 218.996094 " fill-opacity="1" fill-rule="evenodd"/></g></svg>